@startuml

title __SUBSCRIBER's Class Diagram__\n

  namespace dev.other {
    namespace retrofit {
      namespace subscriber {
        abstract class dev.other.retrofit.subscriber.BaseBeanSubscriber {
            # TAG : String
            + onComplete()
            + onError()
            {abstract} + onErrorResponse()
            + onNext()
            {abstract} + onSuccessResponse()
            # getErrorMessage()
            # onStart()
        }
      }
    }
  }
  

  namespace dev.other {
    namespace retrofit {
      namespace subscriber {
        abstract class dev.other.retrofit.subscriber.BaseResponseSubscriber {
            # TAG : String
            # builder : BaseResponse<T>
            + onComplete()
            + onError()
            {abstract} + onErrorResponse()
            + onNext()
            {abstract} + onSuccessResponse()
            # getErrorMessage()
            # isSuccess()
            # onStart()
        }
      }
    }
  }
  

  dev.other.retrofit.subscriber.BaseBeanSubscriber -up-|> io.reactivex.rxjava3.subscribers.DisposableSubscriber
  dev.other.retrofit.subscriber.BaseResponseSubscriber -up-|> io.reactivex.rxjava3.subscribers.DisposableSubscriber


right footer


PlantUML diagram generated by SketchIt! (https://bitbucket.org/pmesmeur/sketch.it)
For more information about this tool, please contact philippe.mesmeur@gmail.com
endfooter

@enduml
