@startuml

title __RESULT's Class Diagram__\n

  namespace dev {
    namespace callback {
      namespace result {
        abstract class dev.callback.result.DevExResultCallback {
            + DevExResultCallback()
            + DevExResultCallback()
            + DevExResultCallback()
            + DevExResultCallback()
            + getExpandResult()
            + onError()
            + onFailure()
            + onResult()
            + onResult()
            + setExpandResult()
        }
      }
    }
  }
  

  namespace dev {
    namespace callback {
      namespace result {
        abstract class dev.callback.result.DevExResultCallback.ExpandResult {
        }
      }
    }
  }
  

  namespace dev {
    namespace callback {
      namespace result {
        abstract class dev.callback.result.DevResultCallback {
            + DevResultCallback()
            + DevResultCallback()
            + DevResultCallback()
            + DevResultCallback()
            {abstract} + onResult()
        }
      }
    }
  }
  

  dev.callback.result.DevExResultCallback -up-|> dev.callback.result.DevResultCallback
  dev.callback.result.DevExResultCallback o-- dev.callback.result.DevExResultCallback.ExpandResult : mExpandResult
  dev.callback.result.DevExResultCallback +-down- dev.callback.result.DevExResultCallback.ExpandResult
  dev.callback.result.DevResultCallback -up-|> dev.callback.AbstractCommonCallBack


right footer


PlantUML diagram generated by SketchIt! (https://bitbucket.org/pmesmeur/sketch.it)
For more information about this tool, please contact philippe.mesmeur@gmail.com
endfooter

@enduml
