@startuml

title __COMMON's Class Diagram__\n

  namespace dev {
    namespace callback {
      namespace common {
        class dev.callback.common.DevCallBack {
            + DevCallBack()
            + DevCallBack()
            + DevCallBack()
            + DevCallBack()
            + callback()
            + callback()
            + callback()
            + callback()
        }
      }
    }
  }
  

  namespace dev {
    namespace callback {
      namespace common {
        class dev.callback.common.DevFilterCallback {
            + DevFilterCallback()
            + DevFilterCallback()
            + DevFilterCallback()
            + DevFilterCallback()
            + compare()
            + compare()
            + filter()
            + filter()
            + isFilter()
            + isFilter()
        }
      }
    }
  }
  

  dev.callback.common.DevCallBack -up-|> dev.callback.AbstractCallBack
  dev.callback.common.DevFilterCallback -up-|> dev.callback.AbstractCallBack


right footer


PlantUML diagram generated by SketchIt! (https://bitbucket.org/pmesmeur/sketch.it)
For more information about this tool, please contact philippe.mesmeur@gmail.com
endfooter

@enduml
