@startuml

title __CALLBACK's Class Diagram__\n

  namespace dev {
    namespace callback {
      abstract class dev.callback.AbstractCallBack {
          - mObject : Object
          - mTag : String
          - mUUID : int
          + AbstractCallBack()
          + AbstractCallBack()
          + AbstractCallBack()
          + AbstractCallBack()
          + getObject()
          + getTag()
          + getUUID()
          + getValue()
          + setObject()
          + setTag()
          + setValue()
      }
    }
  }
  

  namespace dev {
    namespace callback {
      abstract class dev.callback.AbstractCommonCallBack {
          + AbstractCommonCallBack()
          + AbstractCommonCallBack()
          + AbstractCommonCallBack()
          + AbstractCommonCallBack()
          + onError()
          + onFailure()
          + onResult()
      }
    }
  }
  

  dev.callback.AbstractCallBack o-- T : mValue
  dev.callback.AbstractCommonCallBack -up-|> dev.callback.AbstractCallBack


right footer


PlantUML diagram generated by SketchIt! (https://bitbucket.org/pmesmeur/sketch.it)
For more information about this tool, please contact philippe.mesmeur@gmail.com
endfooter

@enduml
