@startuml

title __CACHE's Class Diagram__\n

  namespace dev {
    namespace utils {
      namespace app {
        namespace cache {
          class dev.utils.app.cache.DevCache {
              {static} + MAX_COUNT : int
              {static} + MAX_SIZE : int
              {static} + TIME_DAY : int
              {static} + TIME_HOUR : int
              {static} - DEF_FILE_NAME : String
              {static} - TAG : String
              {static} - sCachePath : String
              {static} - sInstanceMaps : Map<String, DevCache>
              + clear()
              + file()
              + get()
              + getAsBinary()
              + getAsBitmap()
              + getAsDrawable()
              + getAsJSONArray()
              + getAsJSONObject()
              + getAsObject()
              + getAsString()
              {static} + obtain()
              {static} + obtain()
              {static} + obtain()
              {static} + obtain()
              {static} + obtain()
              + put()
              + put()
              + put()
              + put()
              + put()
              + put()
              + put()
              + put()
              + put()
              + put()
              + put()
              + put()
              + put()
              + put()
              + put()
              + remove()
              - DevCache()
              - DevCache()
              {static} - getCachePath()
              {static} - myPid()
          }
        }
      }
    }
  }
  

  namespace dev {
    namespace utils {
      namespace app {
        namespace cache {
          class dev.utils.app.cache.DevCache.xFileOutputStream {
              - file : File
              + close()
              + xFileOutputStream()
          }
        }
      }
    }
  }
  

  namespace dev {
    namespace utils {
      namespace app {
        namespace cache {
          class dev.utils.app.cache.DevCacheManager {
              - mCacheCount : AtomicInteger
              - mCacheDir : File
              - mCacheSize : AtomicLong
              - mCountLimit : int
              - mLastUsageDateMaps : Map<File, Long>
              - mSizeLimit : long
              # DevCacheManager()
              # clear()
              # get()
              # newFile()
              # put()
              # remove()
              - calculateCacheSizeAndCacheCount()
              - calculateSize()
              - removeNext()
          }
        }
      }
    }
  }
  

  namespace dev {
    namespace utils {
      namespace app {
        namespace cache {
          class dev.utils.app.cache.DevCacheUtils {
              {static} - TAG : String
              {static} - mSeparator : char
              {static} # bitmapToByte()
              {static} # bitmapToDrawable()
              {static} # byteToBitmap()
              {static} # clearDateInfo()
              {static} # clearDateInfo()
              {static} # drawableToBitmap()
              {static} # isDue()
              {static} # isDue()
              {static} # newByteArrayWithDateInfo()
              {static} # newStringWithDateInfo()
              - DevCacheUtils()
              {static} - copyOfRange()
              {static} - createDateInfo()
              {static} - getDateInfoFromDate()
              {static} - hasDateInfo()
              {static} - indexOf()
          }
        }
      }
    }
  }
  

  dev.utils.app.cache.DevCache o-- dev.utils.app.cache.DevCacheManager : mCache
  dev.utils.app.cache.DevCache +-down- dev.utils.app.cache.DevCache.xFileOutputStream
  dev.utils.app.cache.DevCache.xFileOutputStream -up-|> java.io.FileOutputStream


right footer


PlantUML diagram generated by SketchIt! (https://bitbucket.org/pmesmeur/sketch.it)
For more information about this tool, please contact philippe.mesmeur@gmail.com
endfooter

@enduml
